<?xml version="1.0" encoding="UTF-8"?>
<svg id="Layer_2" data-name="Layer 2" xmlns="http://www.w3.org/2000/svg" viewBox="0 0 25.96 20.47">
  <defs>
    <style>
      .cls-1 {
        fill: #000;
      }

      .cls-1, .cls-2 {
        stroke-width: 0px;
      }

      .cls-2 {
        fill: #fff;
      }
    </style>
  </defs>
  <g id="Layer_1-2" data-name="Layer 1">
    <g>
      <path class="cls-1" d="M22.79,20.47H3.17c-1.75,0-3.17-1.42-3.17-3.17V5.57c0-1.75,1.42-3.17,3.17-3.17h3.98c.34-1.38,1.59-2.4,3.08-2.4h5.56c1.49,0,2.75,1.02,3.08,2.4h3.91c1.75,0,3.17,1.42,3.17,3.17v11.72c0,1.75-1.42,3.17-3.17,3.17Z"/>
      <path class="cls-2" d="M12.98,17.35c-3.26,0-5.92-2.66-5.92-5.92s2.66-5.92,5.92-5.92,5.92,2.66,5.92,5.92-2.66,5.92-5.92,5.92Z"/>
      <path class="cls-2" d="M22.01,7.56c-.72,0-1.3-.58-1.3-1.3s.58-1.3,1.3-1.3,1.3.58,1.3,1.3-.58,1.3-1.3,1.3Z"/>
    </g>
  </g>
</svg>