0
SECTION
2
HEADER
9
$INSUNITS
70
4
9
$ACADVER
1
AC1014
9
$HANDSEED
5
FFFF
0
ENDSEC
0
SECTION
2
TABLES
0
TABLE
2
VPORT
5
8
100
AcDbSymbolTable
0
ENDTAB
0
TABLE
2
LTYPE
5
5
100
AcDbSymbolTable
0
LTYPE
5
14
100
AcDbSymbolTableRecord
100
AcDbLinetypeTableRecord
2
BYBLOCK
70
0
0
LTYPE
5
15
100
AcDbSymbolTableRecord
100
AcDbLinetypeTableRecord
2
BYLAYER
70
0
0
ENDTAB
0
TABLE
2
LAYER
5
2
100
AcDbSymbolTable
70
2
0
LAYER
5
50
100
AcDbSymbolTableRecord
100
AcDbLayerTableRecord
2
0
70
0
6
CONTINUOUS
0
ENDTAB
0
TABLE
2
STYLE
5
3
100
AcDbSymbolTable
70
1
0
STYLE
5
11
100
AcDbSymbolTableRecord
100
AcDbTextStyleTableRecord
2
STANDARD
70
0
0
ENDTAB
0
TABLE
2
VIEW
5
6
100
AcDbSymbolTable
70
0
0
ENDTAB
0
TABLE
2
UCS
5
7
100
AcDbSymbolTable
70
0
0
ENDTAB
0
TABLE
2
APPID
5
9
100
AcDbSymbolTable
70
2
0
APPID
5
12
100
AcDbSymbolTableRecord
100
AcDbRegAppTableRecord
2
ACAD
70
0
0
ENDTAB
0
TABLE
2
DIMSTYLE
5
A
100
AcDbSymbolTable
70
1
0
ENDTAB
0
TABLE
2
BLOCK_RECORD
5
1
100
AcDbSymbolTable
70
1
0
BLOCK_RECORD
5
1F
100
AcDbSymbolTableRecord
100
AcDbBlockTableRecord
2
*MODEL_SPACE
0
BLOCK_RECORD
5
1B
100
AcDbSymbolTableRecord
100
AcDbBlockTableRecord
2
*PAPER_SPACE
0
ENDTAB
0
ENDSEC
0
SECTION
2
BLOCKS
0
BLOCK
5
20
100
AcDbEntity
100
AcDbBlockBegin
2
*MODEL_SPACE
0
ENDBLK
5
21
100
AcDbEntity
100
AcDbBlockEnd
0
BLOCK
5
1C
100
AcDbEntity
100
AcDbBlockBegin
2
*PAPER_SPACE
0
ENDBLK
5
1D
100
AcDbEntity
100
AcDbBlockEnd
0
ENDSEC
0
SECTION
2
ENTITIES
0
SPLINE
5
100
100
AcDbEntity
8
0
100
AcDbSpline
70
6
71
3
72
28
73
24
74
0
42
0.000000001
43
0.0000000001
44
0.0000000001
40
-3.1415926535897931
40
-3.1415926535897931
40
-3.1415926535897931
40
-3.1415926535897931
40
-2.493950199612458
40
-2.493950199612458
40
-1.7984929091150041
40
-1.7984929091150041
40
-1.135729283646481
40
-1.135729283646481
40
-0.47795610779316799
40
-0.47795610779316799
40
0.13623005493710227
40
0.13623005493710227
40
0.78889643196870018
40
0.78889643196870018
40
1.3585866811030716
40
1.3585866811030716
40
1.9048905412123252
40
1.9048905412123252
40
2.4019002025289575
40
2.4019002025289575
40
2.8570955570279333
40
2.8570955570279333
40
3.1415926535897931
40
3.1415926535897931
40
3.1415926535897931
40
3.1415926535897931
41
1
41
1
41
1
41
1
41
1
41
1
41
1
41
1
41
1
41
1
41
1
41
1
41
1
41
1
41
1
41
1
41
1
41
1
41
1
41
1
41
1
41
1
41
1
41
1
10
185.38622001095123
20
152.50208707922866
30
0
10
185.38622001095123
20
151.09297984025477
30
0
10
185.88426552001195
20
149.68893326204756
30
0
10
187.73461873747186
20
147.36936355121333
30
0
10
189.14089068584849
20
146.50629426526851
30
0
10
192.14217378369193
20
145.8467899556658
30
0
10
193.71631357961712
20
146.00181649288697
30
0
10
196.43632659385992
20
147.20066400134741
30
0
10
197.57769643955598
20
148.23537422947399
30
0
10
198.91625779994411
20
150.68585845003795
30
0
10
199.16769089750491
20
152.06486905411515
30
0
10
198.77305316237494
20
154.79500284576278
30
0
10
198.06986909692316
20
156.12932891083446
30
0
10
196.09258036827384
20
157.99136499250895
30
0
10
194.9089834645429
20
158.59929100764623
30
0
10
192.43457333610635
20
159.10486177515958
30
0
10
191.15350265408136
20
159.03083870169473
30
0
10
188.91648530953461
20
158.29448257596309
30
0
10
187.94349208184337
20
157.68729238537162
30
0
10
186.47943399268897
20
156.16580003259122
30
0
10
185.95556147944848
20
155.28304746607151
30
0
10
185.47973622708454
20
153.73998779631262
30
0
10
185.38622001095123
20
153.12108127235237
30
0
10
185.38622001095123
20
152.50208707922866
30
0
0
SPLINE
5
101
100
AcDbEntity
8
0
100
AcDbSpline
70
6
71
3
72
28
73
24
74
0
42
0.000000001
43
0.0000000001
44
0.0000000001
40
-3.1415926535897931
40
-3.1415926535897931
40
-3.1415926535897931
40
-3.1415926535897931
40
-2.493950199612458
40
-2.493950199612458
40
-1.7984929091150041
40
-1.7984929091150041
40
-1.135729283646481
40
-1.135729283646481
40
-0.47795610779316799
40
-0.47795610779316799
40
0.13623005493710227
40
0.13623005493710227
40
0.78889643196870018
40
0.78889643196870018
40
1.3585866811030716
40
1.3585866811030716
40
1.9048905412123252
40
1.9048905412123252
40
2.4019002025289575
40
2.4019002025289575
40
2.8570955570279333
40
2.8570955570279333
40
3.1415926535897931
40
3.1415926535897931
40
3.1415926535897931
40
3.1415926535897931
41
1
41
1
41
1
41
1
41
1
41
1
41
1
41
1
41
1
41
1
41
1
41
1
41
1
41
1
41
1
41
1
41
1
41
1
41
1
41
1
41
1
41
1
41
1
41
1
10
185.38622001095123
20
137.50208707922863
30
0
10
185.38622001095123
20
136.09297984025474
30
0
10
185.88426552001195
20
134.68893326204753
30
0
10
187.73461873747186
20
132.36936355121327
30
0
10
189.14089068584849
20
131.50629426526848
30
0
10
192.14217378369193
20
130.84678995566577
30
0
10
193.71631357961712
20
131.00181649288695
30
0
10
196.43632659385992
20
132.20066400134738
30
0
10
197.57769643955598
20
133.23537422947393
30
0
10
198.91625779994411
20
135.68585845003793
30
0
10
199.16769089750491
20
137.06486905411512
30
0
10
198.77305316237494
20
139.79500284576272
30
0
10
198.06986909692316
20
141.12932891083443
30
0
10
196.09258036827384
20
142.99136499250892
30
0
10
194.9089834645429
20
143.5992910076462
30
0
10
192.43457333610635
20
144.10486177515955
30
0
10
191.15350265408136
20
144.03083870169471
30
0
10
188.91648530953461
20
143.29448257596306
30
0
10
187.94349208184337
20
142.68729238537159
30
0
10
186.47943399268897
20
141.16580003259119
30
0
10
185.95556147944848
20
140.28304746607148
30
0
10
185.47973622708454
20
138.73998779631259
30
0
10
185.38622001095123
20
138.12108127235234
30
0
10
185.38622001095123
20
137.50208707922863
30
0
0
SPLINE
5
102
100
AcDbEntity
8
0
100
AcDbSpline
70
6
71
3
72
28
73
24
74
0
42
0.000000001
43
0.0000000001
44
0.0000000001
40
-3.1415926535897931
40
-3.1415926535897931
40
-3.1415926535897931
40
-3.1415926535897931
40
-2.493950199612458
40
-2.493950199612458
40
-1.7984929091150041
40
-1.7984929091150041
40
-1.135729283646481
40
-1.135729283646481
40
-0.47795610779316799
40
-0.47795610779316799
40
0.13623005493710227
40
0.13623005493710227
40
0.78889643196870018
40
0.78889643196870018
40
1.3585866811030716
40
1.3585866811030716
40
1.9048905412123252
40
1.9048905412123252
40
2.4019002025289575
40
2.4019002025289575
40
2.8570955570279333
40
2.8570955570279333
40
3.1415926535897931
40
3.1415926535897931
40
3.1415926535897931
40
3.1415926535897931
41
1
41
1
41
1
41
1
41
1
41
1
41
1
41
1
41
1
41
1
41
1
41
1
41
1
41
1
41
1
41
1
41
1
41
1
41
1
41
1
41
1
41
1
41
1
41
1
10
185.38622001095123
20
122.50208707922866
30
0
10
185.38622001095123
20
121.09297984025477
30
0
10
185.88426552001195
20
119.68893326204757
30
0
10
187.73461873747186
20
117.36936355121331
30
0
10
189.14089068584849
20
116.50629426526854
30
0
10
192.14217378369193
20
115.84678995566583
30
0
10
193.71631357961712
20
116.00181649288699
30
0
10
196.43632659385992
20
117.20066400134741
30
0
10
197.57769643955598
20
118.23537422947398
30
0
10
198.91625779994411
20
120.68585845003795
30
0
10
199.16769089750491
20
122.06486905411516
30
0
10
198.77305316237494
20
124.79500284576277
30
0
10
198.06986909692316
20
126.12932891083446
30
0
10
196.09258036827384
20
127.99136499250895
30
0
10
194.9089834645429
20
128.59929100764623
30
0
10
192.43457333610635
20
129.10486177515958
30
0
10
191.15350265408136
20
129.03083870169473
30
0
10
188.91648530953461
20
128.29448257596309
30
0
10
187.94349208184337
20
127.68729238537162
30
0
10
186.47943399268897
20
126.16580003259124
30
0
10
185.95556147944848
20
125.28304746607151
30
0
10
185.47973622708454
20
123.73998779631263
30
0
10
185.38622001095123
20
123.12108127235237
30
0
10
185.38622001095123
20
122.50208707922866
30
0
0
SPLINE
5
103
100
AcDbEntity
8
0
100
AcDbSpline
70
6
71
3
72
28
73
24
74
0
42
0.000000001
43
0.0000000001
44
0.0000000001
40
-3.1415926535897931
40
-3.1415926535897931
40
-3.1415926535897931
40
-3.1415926535897931
40
-2.4939501996133151
40
-2.4939501996133151
40
-1.798492909115611
40
-1.798492909115611
40
-1.1357292836481756
40
-1.1357292836481756
40
-0.47795610779268316
40
-0.47795610779268316
40
0.13623005493789775
40
0.13623005493789775
40
0.78889643196931225
40
0.78889643196931225
40
1.358586681102258
40
1.358586681102258
40
1.9048905412126518
40
1.9048905412126518
40
2.4019002025289575
40
2.4019002025289575
40
2.8570955570279333
40
2.8570955570279333
40
3.1415926535897931
40
3.1415926535897931
40
3.1415926535897931
40
3.1415926535897931
41
1
41
1
41
1
41
1
41
1
41
1
41
1
41
1
41
1
41
1
41
1
41
1
41
1
41
1
41
1
41
1
41
1
41
1
41
1
41
1
41
1
41
1
41
1
41
1
10
172.75715831063945
20
115.03977901226754
30
0
10
172.75715831063945
20
113.63067177329553
30
0
10
173.25520381969878
20
112.22662519509015
30
0
10
175.10555703715582
20
109.90705548425541
30
0
10
176.51182898553233
20
109.04398619830928
30
0
10
179.51311208337353
20
108.38448188870527
30
0
10
181.08725187929599
20
108.53950842592442
30
0
10
183.80726489354319
20
109.73835593438146
30
0
10
184.94863473924408
20
110.77306616251113
30
0
10
186.2871960996336
20
113.22355038308054
30
0
10
186.53862919719353
20
114.60256098715865
30
0
10
186.14399146206125
20
117.3326947788062
30
0
10
185.44080739660873
20
118.66702084387705
30
0
10
183.46351866796081
20
120.52905692554793
30
0
10
182.27992176423317
20
121.13698294068368
30
0
10
179.8055116357977
20
121.6425537081988
30
0
10
178.52444095376973
20
121.56853063473413
30
0
10
176.28742360922149
20
120.83217450900121
30
0
10
175.31443038153105
20
120.22498431840995
30
0
10
173.85037229237722
20
118.70349196563011
30
0
10
173.32649977913667
20
117.82073939911041
30
0
10
172.85067452677276
20
116.27767972935152
30
0
10
172.75715831063945
20
115.65877320539127
30
0
10
172.75715831063945
20
115.03977901226754
30
0
0
SPLINE
5
104
100
AcDbEntity
8
0
100
AcDbSpline
70
6
71
3
72
28
73
24
74
0
42
0.000000001
43
0.0000000001
44
0.0000000001
40
-3.1415926535897931
40
-3.1415926535897931
40
-3.1415926535897931
40
-3.1415926535897931
40
-2.4939501996147908
40
-2.4939501996147908
40
-1.798492909115661
40
-1.798492909115661
40
-1.1357292836495376
40
-1.1357292836495376
40
-0.47795610779366859
40
-0.47795610779366859
40
0.13623005493629836
40
0.13623005493629836
40
0.78889643196942016
40
0.78889643196942016
40
1.3585866811023128
40
1.3585866811023128
40
1.9048905412126531
40
1.9048905412126531
40
2.4019002025289575
40
2.4019002025289575
40
2.8570955570279333
40
2.8570955570279333
40
3.1415926535897931
40
3.1415926535897931
40
3.1415926535897931
40
3.1415926535897931
41
1
41
1
41
1
41
1
41
1
41
1
41
1
41
1
41
1
41
1
41
1
41
1
41
1
41
1
41
1
41
1
41
1
41
1
41
1
41
1
41
1
41
1
41
1
41
1
10
185.38622001095123
20
92.502087079228659
30
0
10
185.38622001095123
20
91.092979840259858
30
0
10
185.88426552000823
20
89.688933262057617
30
0
10
187.7346187374616
20
87.369363551220346
30
0
10
189.14089068584065
20
86.506294265271265
30
0
10
192.14217378368204
20
85.846789955667035
30
0
10
193.71631357960123
20
86.001816492884799
30
0
10
196.43632659384818
20
87.200664001337458
30
0
10
197.57769643955103
20
88.235374229466487
30
0
10
198.91625779994285
20
90.685858450034175
30
0
10
199.16769089750443
20
92.064869054110432
30
0
10
198.77305316237641
20
94.79500284576099
30
0
10
198.06986909692284
20
96.129328910836179
30
0
10
196.09258036827208
20
97.991364992509361
30
0
10
194.90898346454446
20
98.59929100764495
30
0
10
192.4345733361092
20
99.104861775159904
30
0
10
191.15350265408142
20
99.030838701695217
30
0
10
188.9164853095333
20
98.29448257596232
30
0
10
187.94349208184286
20
97.687292385371066
30
0
10
186.479433992689
20
96.165800032591221
30
0
10
185.95556147944848
20
95.283047466071508
30
0
10
185.47973622708454
20
93.739987796312633
30
0
10
185.38622001095123
20
93.12108127235237
30
0
10
185.38622001095123
20
92.502087079228659
30
0
0
SPLINE
5
105
100
AcDbEntity
8
0
100
AcDbSpline
70
6
71
3
72
28
73
24
74
0
42
0.000000001
43
0.0000000001
44
0.0000000001
40
-3.1415926535897931
40
-3.1415926535897931
40
-3.1415926535897931
40
-3.1415926535897931
40
-2.493950199613709
40
-2.493950199613709
40
-1.7984929091154447
40
-1.7984929091154447
40
-1.1357292836484039
40
-1.1357292836484039
40
-0.47795610779310138
40
-0.47795610779310138
40
0.13623005493609908
40
0.13623005493609908
40
0.78889643196956361
40
0.78889643196956361
40
1.358586681102248
40
1.358586681102248
40
1.9048905412127295
40
1.9048905412127295
40
2.4019002025289575
40
2.4019002025289575
40
2.8570955570279333
40
2.8570955570279333
40
3.1415926535897931
40
3.1415926535897931
40
3.1415926535897931
40
3.1415926535897931
41
1
41
1
41
1
41
1
41
1
41
1
41
1
41
1
41
1
41
1
41
1
41
1
41
1
41
1
41
1
41
1
41
1
41
1
41
1
41
1
41
1
41
1
41
1
41
1
10
185.38622001095123
20
77.50208707922863
30
0
10
185.38622001095123
20
76.09297984025747
30
0
10
185.88426552000996
20
74.688933262052913
30
0
10
187.73461873746629
20
72.369363551217191
30
0
10
189.14089068584394
20
71.506294265270185
30
0
10
192.14217378368559
20
70.846789955666551
30
0
10
193.71631357960706
20
71.001816492885567
30
0
10
196.43632659385332
20
72.200664001341465
30
0
10
197.57769643955416
20
73.235374229470438
30
0
10
198.91625779994311
20
75.685858450036292
30
0
10
199.16769089750409
20
77.064869054110744
30
0
10
198.77305316237678
20
79.79500284576045
30
0
10
198.06986909692287
20
81.129328910836421
30
0
10
196.0925803682716
20
82.991364992509517
30
0
10
194.90898346454446
20
83.599291007644837
30
0
10
192.43457333610934
20
84.104861775159918
30
0
10
191.15350265408119
20
84.030838701695188
30
0
10
188.91648530953296
20
83.294482575962107
30
0
10
187.94349208184275
20
82.68729238537091
30
0
10
186.479433992689
20
81.165800032591179
30
0
10
185.95556147944848
20
80.28304746607148
30
0
10
185.47973622708454
20
78.739987796312604
30
0
10
185.38622001095123
20
78.121081272352342
30
0
10
185.38622001095123
20
77.50208707922863
30
0
0
SPLINE
5
106
100
AcDbEntity
8
0
100
AcDbSpline
70
6
71
3
72
28
73
24
74
0
42
0.000000001
43
0.0000000001
44
0.0000000001
40
-3.1415926535897931
40
-3.1415926535897931
40
-3.1415926535897931
40
-3.1415926535897931
40
-2.4939501996133435
40
-2.4939501996133435
40
-1.7984929091147772
40
-1.7984929091147772
40
-1.1357292836480419
40
-1.1357292836480419
40
-0.4779561077922635
40
-0.4779561077922635
40
0.13623005493859452
40
0.13623005493859452
40
0.78889643196947867
40
0.78889643196947867
40
1.3585866811026737
40
1.3585866811026737
40
1.9048905412126518
40
1.9048905412126518
40
2.4019002025289575
40
2.4019002025289575
40
2.8570955570279333
40
2.8570955570279333
40
3.1415926535897931
40
3.1415926535897931
40
3.1415926535897931
40
3.1415926535897931
41
1
41
1
41
1
41
1
41
1
41
1
41
1
41
1
41
1
41
1
41
1
41
1
41
1
41
1
41
1
41
1
41
1
41
1
41
1
41
1
41
1
41
1
41
1
41
1
10
172.75715831063945
20
70.03977901226753
30
0
10
172.75715831063945
20
68.630671773295575
30
0
10
173.25520381969875
20
67.226625195090236
30
0
10
175.10555703715684
20
64.907055484254002
30
0
10
176.51182898553569
20
64.043986198307266
30
0
10
179.51311208337779
20
63.384481888705537
30
0
10
181.08725187929835
20
63.539508425925256
30
0
10
183.80726489354453
20
64.738355934382241
30
0
10
184.94863473924568
20
65.773066162512706
30
0
10
186.28719609963468
20
68.223550383083747
30
0
10
186.53862919719393
20
69.602560987162647
30
0
10
186.14399146205977
20
72.332694778809412
30
0
10
185.44080739660725
20
73.667020843878788
30
0
10
183.46351866795948
20
75.5290569255489
30
0
10
182.27992176423103
20
76.136982940684589
30
0
10
179.80551163579571
20
76.642553708198676
30
0
10
178.52444095376885
20
76.568530634733804
30
0
10
176.28742360922149
20
75.832174509001163
30
0
10
175.31443038153105
20
75.224984318409938
30
0
10
173.85037229237722
20
73.703491965630093
30
0
10
173.32649977913667
20
72.82073939911038
30
0
10
172.85067452677276
20
71.277679729351505
30
0
10
172.75715831063945
20
70.658773205391242
30
0
10
172.75715831063945
20
70.03977901226753
30
0
0
SPLINE
5
107
100
AcDbEntity
8
0
100
AcDbSpline
70
6
71
3
72
28
73
24
74
0
42
0.000000001
43
0.0000000001
44
0.0000000001
40
-3.1415926535897931
40
-3.1415926535897931
40
-3.1415926535897931
40
-3.1415926535897931
40
-2.4939501996142073
40
-2.4939501996142073
40
-1.7984929091160025
40
-1.7984929091160025
40
-1.1357292836483484
40
-1.1357292836483484
40
-0.47795610779297404
40
-0.47795610779297404
40
0.13623005493715146
40
0.13623005493715146
40
0.78889643196911496
40
0.78889643196911496
40
1.3585866811026461
40
1.3585866811026461
40
1.9048905412124324
40
1.9048905412124324
40
2.4019002025289575
40
2.4019002025289575
40
2.8570955570279333
40
2.8570955570279333
40
3.1415926535897931
40
3.1415926535897931
40
3.1415926535897931
40
3.1415926535897931
41
1
41
1
41
1
41
1
41
1
41
1
41
1
41
1
41
1
41
1
41
1
41
1
41
1
41
1
41
1
41
1
41
1
41
1
41
1
41
1
41
1
41
1
41
1
41
1
10
185.38622001095123
20
47.502087079228623
30
0
10
185.38622001095123
20
46.092979840258565
30
0
10
185.88426552000914
20
44.688933262055073
30
0
10
187.73461873746351
20
42.369363551219422
30
0
10
189.14089068584059
20
41.506294265271777
30
0
10
192.14217378368306
20
40.846789955666274
30
0
10
193.71631357960612
20
41.001816492885091
30
0
10
196.43632659385375
20
42.200664001341735
30
0
10
197.5776964395547
20
43.235374229470949
30
0
10
198.91625779994433
20
45.685858450038886
30
0
10
199.16769089750485
20
47.064869054115746
30
0
10
198.77305316237468
20
49.795002845763811
30
0
10
198.06986909692216
20
51.129328910836222
30
0
10
196.09258036827282
20
52.991364992509176
30
0
10
194.90898346454378
20
53.59929100764549
30
0
10
192.43457333610814
20
54.104861775159698
30
0
10
191.15350265408176
20
54.030838701694996
30
0
10
188.91648530953415
20
53.294482575962817
30
0
10
187.9434920818432
20
52.687292385371407
30
0
10
186.47943399268897
20
51.1658000325912
30
0
10
185.95556147944848
20
50.28304746607148
30
0
10
185.47973622708454
20
48.739987796312604
30
0
10
185.38622001095123
20
48.121081272352342
30
0
10
185.38622001095123
20
47.502087079228623
30
0
0
LWPOLYLINE
5
108
100
AcDbEntity
8
0
100
AcDbPolyline
90
4
70
1
43
0.0
10
201.63613645704839
20
170
10
170.01335985536446
20
170
10
170.01335985536446
20
30
10
201.63613645704839
20
30
0
SPLINE
5
109
100
AcDbEntity
8
0
100
AcDbSpline
70
6
71
3
72
28
73
24
74
0
42
0.000000001
43
0.0000000001
44
0.0000000001
40
-3.1415926535897931
40
-3.1415926535897931
40
-3.1415926535897931
40
-3.1415926535897931
40
-2.4939501996138356
40
-2.4939501996138356
40
-1.7984929091151787
40
-1.7984929091151787
40
-1.1357292836479917
40
-1.1357292836479917
40
-0.4779561077922635
40
-0.4779561077922635
40
0.13623005493859452
40
0.13623005493859452
40
0.78889643196947867
40
0.78889643196947867
40
1.3585866811026737
40
1.3585866811026737
40
1.9048905412126518
40
1.9048905412126518
40
2.4019002025289575
40
2.4019002025289575
40
2.8570955570279333
40
2.8570955570279333
40
3.1415926535897931
40
3.1415926535897931
40
3.1415926535897931
40
3.1415926535897931
41
1
41
1
41
1
41
1
41
1
41
1
41
1
41
1
41
1
41
1
41
1
41
1
41
1
41
1
41
1
41
1
41
1
41
1
41
1
41
1
41
1
41
1
41
1
41
1
10
172.75715831063945
20
40.03977901226753
30
0
10
172.75715831063945
20
38.630671773296655
30
0
10
173.25520381969795
20
37.22662519509236
30
0
10
175.10555703715431
20
34.907055484255956
30
0
10
176.51182898553293
20
34.043986198308488
30
0
10
179.51311208337592
20
33.384481888705338
30
0
10
181.08725187929778
20
33.539508425924922
30
0
10
183.8072648935447
20
34.738355934382412
30
0
10
184.9486347392457
20
35.773066162512798
30
0
10
186.28719609963468
20
38.223550383083747
30
0
10
186.53862919719393
20
39.602560987162647
30
0
10
186.14399146205977
20
42.332694778809412
30
0
10
185.44080739660725
20
43.667020843878781
30
0
10
183.46351866795948
20
45.529056925548907
30
0
10
182.27992176423103
20
46.136982940684597
30
0
10
179.80551163579571
20
46.642553708198669
30
0
10
178.52444095376885
20
46.568530634733804
30
0
10
176.28742360922149
20
45.832174509001163
30
0
10
175.31443038153105
20
45.224984318409938
30
0
10
173.85037229237722
20
43.703491965630086
30
0
10
173.32649977913667
20
42.82073939911038
30
0
10
172.85067452677276
20
41.277679729351505
30
0
10
172.75715831063945
20
40.658773205391242
30
0
10
172.75715831063945
20
40.03977901226753
30
0
0
SPLINE
5
110
100
AcDbEntity
8
0
100
AcDbSpline
70
6
71
3
72
28
73
24
74
0
42
0.000000001
43
0.0000000001
44
0.0000000001
40
-3.1415926535897931
40
-3.1415926535897931
40
-3.1415926535897931
40
-3.1415926535897931
40
-2.49395019961218
40
-2.49395019961218
40
-1.7984929091142334
40
-1.7984929091142334
40
-1.1357292836478821
40
-1.1357292836478821
40
-0.47795610779288467
40
-0.47795610779288467
40
0.13623005493541873
40
0.13623005493541873
40
0.78889643196930792
40
0.78889643196930792
40
1.358586681102258
40
1.358586681102258
40
1.9048905412126518
40
1.9048905412126518
40
2.4019002025289575
40
2.4019002025289575
40
2.8570955570279333
40
2.8570955570279333
40
3.1415926535897931
40
3.1415926535897931
40
3.1415926535897931
40
3.1415926535897931
41
1
41
1
41
1
41
1
41
1
41
1
41
1
41
1
41
1
41
1
41
1
41
1
41
1
41
1
41
1
41
1
41
1
41
1
41
1
41
1
41
1
41
1
41
1
41
1
10
172.75715831063945
20
55.039779012267545
30
0
10
172.75715831063945
20
53.630671773293066
30
0
10
173.25520381970057
20
52.226625195085241
30
0
10
175.10555703716224
20
49.907055484250137
30
0
10
176.51182898554049
20
49.043986198305412
30
0
10
179.51311208338069
20
48.384481888705714
30
0
10
181.08725187930023
20
48.53950842592586
30
0
10
183.80726489354379
20
49.738355934382206
30
0
10
184.94863473924369
20
50.773066162511064
30
0
10
186.28719609963076
20
53.223550383074858
30
0
10
186.53862919719171
20
54.602560987147058
30
0
10
186.14399146206651
20
57.332694778796018
30
0
10
185.44080739661271
20
58.66702084387326
30
0
10
183.46351866796081
20
60.529056925547891
30
0
10
182.27992176423317
20
61.136982940683673
30
0
10
179.8055116357977
20
61.642553708198811
30
0
10
178.52444095376973
20
61.568530634734131
30
0
10
176.28742360922149
20
60.832174509001206
30
0
10
175.31443038153105
20
60.224984318409952
30
0
10
173.85037229237722
20
58.703491965630107
30
0
10
173.32649977913667
20
57.820739399110401
30
0
10
172.85067452677276
20
56.277679729351526
30
0
10
172.75715831063945
20
55.658773205391263
30
0
10
172.75715831063945
20
55.039779012267545
30
0
0
SPLINE
5
111
100
AcDbEntity
8
0
100
AcDbSpline
70
6
71
3
72
28
73
24
74
0
42
0.000000001
43
0.0000000001
44
0.0000000001
40
-3.1415926535897931
40
-3.1415926535897931
40
-3.1415926535897931
40
-3.1415926535897931
40
-2.4939501996171547
40
-2.4939501996171547
40
-1.7984929091182627
40
-1.7984929091182627
40
-1.1357292836509461
40
-1.1357292836509461
40
-0.47795610779327491
40
-0.47795610779327491
40
0.13623005493677909
40
0.13623005493677909
40
0.78889643196936743
40
0.78889643196936743
40
1.3585866811024214
40
1.3585866811024214
40
1.9048905412128772
40
1.9048905412128772
40
2.4019002025289575
40
2.4019002025289575
40
2.8570955570279333
40
2.8570955570279333
40
3.1415926535897931
40
3.1415926535897931
40
3.1415926535897931
40
3.1415926535897931
41
1
41
1
41
1
41
1
41
1
41
1
41
1
41
1
41
1
41
1
41
1
41
1
41
1
41
1
41
1
41
1
41
1
41
1
41
1
41
1
41
1
41
1
41
1
41
1
10
185.38622001095123
20
62.502087079228659
30
0
10
185.38622001095123
20
61.092979840265009
30
0
10
185.88426552000445
20
59.688933262067813
30
0
10
187.73461873744853
20
57.369363551230812
30
0
10
189.14089068582484
20
56.506294265278711
30
0
10
192.14217378366655
20
55.846789955666608
30
0
10
193.71631357958921
20
56.001816492881737
30
0
10
196.43632659384406
20
57.200664001333443
30
0
10
197.57769643955095
20
58.235374229465016
30
0
10
198.91625779994371
20
60.685858450036854
30
0
10
199.16769089750466
20
62.06486905411343
30
0
10
198.77305316237539
20
64.795002845762838
30
0
10
198.06986909692225
20
66.129328910836676
30
0
10
196.09258036827214
20
67.991364992509389
30
0
10
194.90898346454415
20
68.599291007645149
30
0
10
192.4345733361082
20
69.104861775159975
30
0
10
191.15350265408011
20
69.030838701695046
30
0
10
188.91648530953239
20
68.294482575961752
30
0
10
187.94349208184252
20
67.687292385370696
30
0
10
186.479433992689
20
66.165800032591193
30
0
10
185.95556147944848
20
65.283047466071508
30
0
10
185.47973622708454
20
63.73998779631264
30
0
10
185.38622001095123
20
63.121081272352377
30
0
10
185.38622001095123
20
62.502087079228659
30
0
0
SPLINE
5
112
100
AcDbEntity
8
0
100
AcDbSpline
70
6
71
3
72
28
73
24
74
0
42
0.000000001
43
0.0000000001
44
0.0000000001
40
-3.1415926535897931
40
-3.1415926535897931
40
-3.1415926535897931
40
-3.1415926535897931
40
-2.4939501996147952
40
-2.4939501996147952
40
-1.7984929091161836
40
-1.7984929091161836
40
-1.1357292836481756
40
-1.1357292836481756
40
-0.47795610779268316
40
-0.47795610779268316
40
0.13623005493789775
40
0.13623005493789775
40
0.78889643196931225
40
0.78889643196931225
40
1.358586681102258
40
1.358586681102258
40
1.9048905412126518
40
1.9048905412126518
40
2.4019002025289575
40
2.4019002025289575
40
2.8570955570279333
40
2.8570955570279333
40
3.1415926535897931
40
3.1415926535897931
40
3.1415926535897931
40
3.1415926535897931
41
1
41
1
41
1
41
1
41
1
41
1
41
1
41
1
41
1
41
1
41
1
41
1
41
1
41
1
41
1
41
1
41
1
41
1
41
1
41
1
41
1
41
1
41
1
41
1
10
172.75715831063945
20
85.039779012267545
30
0
10
172.75715831063945
20
83.630671773298758
30
0
10
173.25520381969642
20
82.226625195096531
30
0
10
175.10555703714911
20
79.907055484260141
30
0
10
176.51182898552676
20
79.043986198311401
30
0
10
179.5131120833708
20
78.384481888705025
30
0
10
181.08725187929483
20
78.539508425923913
30
0
10
183.80726489354319
20
79.73835593438146
30
0
10
184.94863473924408
20
80.773066162511128
30
0
10
186.2871960996336
20
83.223550383080536
30
0
10
186.53862919719353
20
84.602560987158654
30
0
10
186.14399146206125
20
87.3326947788062
30
0
10
185.44080739660873
20
88.667020843877054
30
0
10
183.46351866796081
20
90.529056925547934
30
0
10
182.27992176423317
20
91.13698294068368
30
0
10
179.8055116357977
20
91.642553708198804
30
0
10
178.52444095376973
20
91.568530634734131
30
0
10
176.28742360922149
20
90.832174509001206
30
0
10
175.31443038153105
20
90.224984318409952
30
0
10
173.85037229237722
20
88.703491965630107
30
0
10
173.32649977913667
20
87.820739399110408
30
0
10
172.85067452677276
20
86.277679729351519
30
0
10
172.75715831063945
20
85.65877320539127
30
0
10
172.75715831063945
20
85.039779012267545
30
0
0
SPLINE
5
113
100
AcDbEntity
8
0
100
AcDbSpline
70
6
71
3
72
28
73
24
74
0
42
0.000000001
43
0.0000000001
44
0.0000000001
40
-3.1415926535897931
40
-3.1415926535897931
40
-3.1415926535897931
40
-3.1415926535897931
40
-2.4939501996137161
40
-2.4939501996137161
40
-1.7984929091159434
40
-1.7984929091159434
40
-1.1357292836482888
40
-1.1357292836482888
40
-0.47795610779254571
40
-0.47795610779254571
40
0.13623005493634077
40
0.13623005493634077
40
0.78889643196931225
40
0.78889643196931225
40
1.358586681102258
40
1.358586681102258
40
1.9048905412126518
40
1.9048905412126518
40
2.4019002025289575
40
2.4019002025289575
40
2.8570955570279333
40
2.8570955570279333
40
3.1415926535897931
40
3.1415926535897931
40
3.1415926535897931
40
3.1415926535897931
41
1
41
1
41
1
41
1
41
1
41
1
41
1
41
1
41
1
41
1
41
1
41
1
41
1
41
1
41
1
41
1
41
1
41
1
41
1
41
1
41
1
41
1
41
1
41
1
10
172.75715831063945
20
100.03977901226753
30
0
10
172.75715831063945
20
98.630671773296399
30
0
10
173.25520381969818
20
97.226625195091856
30
0
10
175.10555703715374
20
94.907055484257
30
0
10
176.51182898553009
20
94.043986198310279
30
0
10
179.51311208337165
20
93.384481888705153
30
0
10
181.0872518792948
20
93.539508425924083
30
0
10
183.80726489354305
20
94.738355934381232
30
0
10
184.94863473924443
20
95.773066162511327
30
0
10
186.2871960996321
20
98.223550383078134
30
0
10
186.53862919719231
20
99.602560987151918
30
0
10
186.14399146206455
20
102.33269477879979
30
0
10
185.44080739661123
20
103.66702084387468
30
0
10
183.46351866796081
20
105.52905692554791
30
0
10
182.27992176423317
20
106.13698294068365
30
0
10
179.8055116357977
20
106.64255370819879
30
0
10
178.52444095376973
20
106.56853063473412
30
0
10
176.28742360922149
20
105.83217450900119
30
0
10
175.31443038153105
20
105.22498431840994
30
0
10
173.85037229237722
20
103.70349196563009
30
0
10
173.32649977913667
20
102.82073939911038
30
0
10
172.85067452677276
20
101.27767972935149
30
0
10
172.75715831063945
20
100.65877320539124
30
0
10
172.75715831063945
20
100.03977901226753
30
0
0
SPLINE
5
114
100
AcDbEntity
8
0
100
AcDbSpline
70
6
71
3
72
28
73
24
74
0
42
0.000000001
43
0.0000000001
44
0.0000000001
40
-3.1415926535897931
40
-3.1415926535897931
40
-3.1415926535897931
40
-3.1415926535897931
40
-2.4939501996147908
40
-2.4939501996147908
40
-1.798492909115661
40
-1.798492909115661
40
-1.1357292836495376
40
-1.1357292836495376
40
-0.47795610779366859
40
-0.47795610779366859
40
0.13623005493629836
40
0.13623005493629836
40
0.78889643196942016
40
0.78889643196942016
40
1.3585866811023128
40
1.3585866811023128
40
1.9048905412126531
40
1.9048905412126531
40
2.4019002025289575
40
2.4019002025289575
40
2.8570955570279333
40
2.8570955570279333
40
3.1415926535897931
40
3.1415926535897931
40
3.1415926535897931
40
3.1415926535897931
41
1
41
1
41
1
41
1
41
1
41
1
41
1
41
1
41
1
41
1
41
1
41
1
41
1
41
1
41
1
41
1
41
1
41
1
41
1
41
1
41
1
41
1
41
1
41
1
10
185.38622001095123
20
107.50208707922863
30
0
10
185.38622001095123
20
106.09297984025983
30
0
10
185.88426552000823
20
104.68893326205759
30
0
10
187.7346187374616
20
102.36936355122032
30
0
10
189.14089068584065
20
101.50629426527124
30
0
10
192.14217378368204
20
100.84678995566699
30
0
10
193.71631357960123
20
101.00181649288476
30
0
10
196.43632659384818
20
102.20066400133743
30
0
10
197.57769643955103
20
103.23537422946644
30
0
10
198.91625779994285
20
105.68585845003413
30
0
10
199.16769089750443
20
107.0648690541104
30
0
10
198.77305316237641
20
109.79500284576096
30
0
10
198.06986909692284
20
111.12932891083615
30
0
10
196.09258036827208
20
112.99136499250933
30
0
10
194.90898346454446
20
113.59929100764491
30
0
10
192.4345733361092
20
114.10486177515986
30
0
10
191.15350265408142
20
114.03083870169517
30
0
10
188.9164853095333
20
113.29448257596228
30
0
10
187.94349208184286
20
112.68729238537104
30
0
10
186.479433992689
20
111.16580003259118
30
0
10
185.95556147944848
20
110.28304746607148
30
0
10
185.47973622708454
20
108.73998779631259
30
0
10
185.38622001095123
20
108.12108127235234
30
0
10
185.38622001095123
20
107.50208707922863
30
0
0
SPLINE
5
115
100
AcDbEntity
8
0
100
AcDbSpline
70
6
71
3
72
28
73
24
74
0
42
0.000000001
43
0.0000000001
44
0.0000000001
40
-3.1415926535897931
40
-3.1415926535897931
40
-3.1415926535897931
40
-3.1415926535897931
40
-2.4939501996137161
40
-2.4939501996137161
40
-1.7984929091159434
40
-1.7984929091159434
40
-1.1357292836482888
40
-1.1357292836482888
40
-0.47795610779254571
40
-0.47795610779254571
40
0.13623005493634077
40
0.13623005493634077
40
0.78889643196931225
40
0.78889643196931225
40
1.358586681102258
40
1.358586681102258
40
1.9048905412126518
40
1.9048905412126518
40
2.4019002025289575
40
2.4019002025289575
40
2.8570955570279333
40
2.8570955570279333
40
3.1415926535897931
40
3.1415926535897931
40
3.1415926535897931
40
3.1415926535897931
41
1
41
1
41
1
41
1
41
1
41
1
41
1
41
1
41
1
41
1
41
1
41
1
41
1
41
1
41
1
41
1
41
1
41
1
41
1
41
1
41
1
41
1
41
1
41
1
10
172.75715831063945
20
130.03977901226753
30
0
10
172.75715831063945
20
128.63067177329637
30
0
10
173.25520381969818
20
127.22662519509186
30
0
10
175.10555703715374
20
124.907055484257
30
0
10
176.51182898553009
20
124.04398619831028
30
0
10
179.51311208337165
20
123.38448188870515
30
0
10
181.0872518792948
20
123.53950842592408
30
0
10
183.80726489354305
20
124.73835593438123
30
0
10
184.94863473924443
20
125.77306616251133
30
0
10
186.2871960996321
20
128.22355038307813
30
0
10
186.53862919719231
20
129.60256098715192
30
0
10
186.14399146206455
20
132.33269477879981
30
0
10
185.44080739661123
20
133.66702084387467
30
0
10
183.46351866796081
20
135.52905692554791
30
0
10
182.27992176423317
20
136.13698294068365
30
0
10
179.8055116357977
20
136.64255370819879
30
0
10
178.52444095376973
20
136.56853063473412
30
0
10
176.28742360922149
20
135.83217450900119
30
0
10
175.31443038153105
20
135.22498431840995
30
0
10
173.85037229237722
20
133.70349196563009
30
0
10
173.32649977913667
20
132.82073939911038
30
0
10
172.85067452677276
20
131.27767972935149
30
0
10
172.75715831063945
20
130.65877320539124
30
0
10
172.75715831063945
20
130.03977901226753
30
0
0
SPLINE
5
116
100
AcDbEntity
8
0
100
AcDbSpline
70
6
71
3
72
28
73
24
74
0
42
0.000000001
43
0.0000000001
44
0.0000000001
40
-3.1415926535897931
40
-3.1415926535897931
40
-3.1415926535897931
40
-3.1415926535897931
40
-2.4939501996171765
40
-2.4939501996171765
40
-1.7984929091183441
40
-1.7984929091183441
40
-1.1357292836515471
40
-1.1357292836515471
40
-0.47795610779401076
40
-0.47795610779401076
40
0.13623005493579132
40
0.13623005493579132
40
0.78889643196890857
40
0.78889643196890857
40
1.3585866811030038
40
1.3585866811030038
40
1.9048905412123236
40
1.9048905412123236
40
2.4019002025289575
40
2.4019002025289575
40
2.8570955570279333
40
2.8570955570279333
40
3.1415926535897931
40
3.1415926535897931
40
3.1415926535897931
40
3.1415926535897931
41
1
41
1
41
1
41
1
41
1
41
1
41
1
41
1
41
1
41
1
41
1
41
1
41
1
41
1
41
1
41
1
41
1
41
1
41
1
41
1
41
1
41
1
41
1
41
1
10
172.75715831063945
20
145.03977901226756
30
0
10
172.75715831063945
20
143.63067177330393
30
0
10
173.25520381969267
20
142.22662519510681
30
0
10
175.10555703713658
20
139.9070554842699
30
0
10
176.51182898551269
20
139.04398619831781
30
0
10
179.51311208335306
20
138.38448188870575
30
0
10
181.08725187927439
20
138.53950842592022
30
0
10
183.80726489352867
20
139.73835593436979
30
0
10
184.94863473923598
20
140.77306616250038
30
0
10
186.28719609963025
20
143.22355038307055
30
0
10
186.53862919719234
20
144.60256098714632
30
0
10
186.14399146206583
20
147.33269477879671
30
0
10
185.440807396613
20
148.66702084387219
30
0
10
183.46351866796127
20
150.52905692554819
30
0
10
182.27992176423095
20
151.13698294068507
30
0
10
179.80551163579489
20
151.64255370819848
30
0
10
178.5244409537697
20
151.56853063473366
30
0
10
176.2874236092228
20
150.83217450900199
30
0
10
175.31443038153157
20
150.22498431841052
30
0
10
173.85037229237719
20
148.70349196563012
30
0
10
173.32649977913667
20
147.82073939911041
30
0
10
172.85067452677276
20
146.27767972935152
30
0
10
172.75715831063945
20
145.65877320539127
30
0
10
172.75715831063945
20
145.03977901226756
30
0
0
SPLINE
5
117
100
AcDbEntity
8
0
100
AcDbSpline
70
6
71
3
72
28
73
24
74
0
42
0.000000001
43
0.0000000001
44
0.0000000001
40
-3.1415926535897931
40
-3.1415926535897931
40
-3.1415926535897931
40
-3.1415926535897931
40
-2.4939501996133941
40
-2.4939501996133941
40
-1.7984929091160609
40
-1.7984929091160609
40
-1.1357292836489838
40
-1.1357292836489838
40
-0.47795610779352071
40
-0.47795610779352071
40
0.13623005493656071
40
0.13623005493656071
40
0.78889643196929227
40
0.78889643196929227
40
1.3585866811032377
40
1.3585866811032377
40
1.9048905412129131
40
1.9048905412129131
40
2.4019002025289575
40
2.4019002025289575
40
2.8570955570279333
40
2.8570955570279333
40
3.1415926535897931
40
3.1415926535897931
40
3.1415926535897931
40
3.1415926535897931
41
1
41
1
41
1
41
1
41
1
41
1
41
1
41
1
41
1
41
1
41
1
41
1
41
1
41
1
41
1
41
1
41
1
41
1
41
1
41
1
41
1
41
1
41
1
41
1
10
172.63607449668214
20
159.99589767310849
30
0
10
172.63607449668214
20
158.58679043413667
30
0
10
173.13412000574132
20
157.18274385593142
30
0
10
174.98447322319754
20
154.86317414509733
30
0
10
176.39074517157303
20
154.00010485915138
30
0
10
179.39202826941226
20
153.34060054954642
30
0
10
180.96616806533393
20
153.49562708676456
30
0
10
183.6861810795813
20
154.69447459521913
30
0
10
184.82755092528305
20
155.72918482334785
30
0
10
186.16611228567416
20
158.17966904391514
30
0
10
186.41754538323545
20
159.55867964799177
30
0
10
186.02290764810678
20
162.28881343964161
30
0
10
185.31972358265361
20
163.62313950471591
30
0
10
183.34243485400197
20
165.48517558639034
30
0
10
182.15883795027182
20
166.09310160152666
30
0
10
179.68442782183516
20
166.59867236903963
30
0
10
178.40335713980915
20
166.52464929557428
30
0
10
176.16633979526316
20
165.7882931698415
30
0
10
175.19334656757337
20
165.18110297925048
30
0
10
173.7292884784199
20
163.65961062647105
30
0
10
173.20541596517938
20
162.77685805995137
30
0
10
172.72959071281545
20
161.2337983901925
30
0
10
172.63607449668214
20
160.6148918662322
30
0
10
172.63607449668214
20
159.99589767310849
30
0
0
ENDSEC
0
SECTION
2
OBJECTS
0
DICTIONARY
5
C
100
AcDbDictionary
3
ACAD_GROUP
350
D
3
ACAD_MLINESTYLE
350
17
0
DICTIONARY
5
D
100
AcDbDictionary
0
DICTIONARY
5
1A
330
C
100
AcDbDictionary
0
DICTIONARY
5
17
100
AcDbDictionary
0
ENDSEC
0
EOF
